<svg width="12" height="11" viewBox="0 0 12 11" fill="none" xmlns="http://www.w3.org/2000/svg">
<path d="M0.531893 2.236V1.074H3.16389V11H1.87589V2.236H0.531893ZM5.19827 9.978C6.3836 9.026 7.31227 8.24667 7.98427 7.64C8.65627 7.03333 9.22094 6.40333 9.67827 5.75C10.1449 5.08733 10.3783 4.44333 10.3783 3.818C10.3783 3.23933 10.2289 2.77733 9.93027 2.432C9.6316 2.07733 9.16027 1.9 8.51627 1.9C7.8816 1.9 7.38694 2.10067 7.03227 2.502C6.68694 2.894 6.50027 3.42133 6.47227 4.084H5.24027C5.2776 3.03867 5.59493 2.23133 6.19227 1.662C6.7896 1.09267 7.5596 0.807999 8.50227 0.807999C9.4636 0.807999 10.2243 1.074 10.7843 1.606C11.3536 2.12867 11.6383 2.84733 11.6383 3.762C11.6383 4.50867 11.4049 5.246 10.9383 5.974C10.4809 6.702 9.95827 7.34133 9.37027 7.892C8.78227 8.43333 8.03094 9.07733 7.11627 9.824H11.9323V10.888H5.19827V9.978Z" fill="white"/>
</svg>
