<svg width="118" height="118" viewBox="0 0 118 118" fill="none" xmlns="http://www.w3.org/2000/svg">
<path fill-rule="evenodd" clip-rule="evenodd" d="M39.2676 57.6066C37.248 55.5871 34.0086 55.4793 31.8591 57.3602L25.7286 62.7243C24.6375 63.6788 22.9792 63.5685 22.0245 62.4772C21.0699 61.3863 21.1804 59.728 22.2714 58.7732L28.402 53.4091C32.6315 49.7083 39.006 49.9205 42.9799 53.8945L57.9941 68.9085C59.4973 70.4117 61.8637 70.6168 63.6032 69.3943L64.6469 68.661C69.6529 65.1428 76.4258 65.5502 80.9737 69.6435L92.2559 79.7977C93.3336 80.7675 93.4211 82.4272 92.4512 83.5049C91.4814 84.5825 89.8217 84.6697 88.744 83.6998L77.4618 73.5456C74.7328 71.09 70.669 70.8454 67.6656 72.9562L66.6219 73.6898C62.795 76.3792 57.5888 75.9281 54.2816 72.6209L39.2676 57.6066Z" fill="#AAAAAA"/>
<path fill-rule="evenodd" clip-rule="evenodd" d="M58.7991 21.375H59C60.4497 21.375 61.625 22.5503 61.625 24C61.625 25.4497 60.4497 26.625 59 26.625C50.6762 26.625 44.6975 26.6306 40.1475 27.2423C35.6731 27.8439 32.9756 28.988 30.9818 30.9818C28.988 32.9756 27.8439 35.6731 27.2423 40.1475C26.6306 44.6975 26.625 50.6762 26.625 59C26.625 67.3237 26.6306 73.3024 27.2423 77.8524C27.8439 82.3268 28.988 85.0242 30.9818 87.0182C32.9756 89.0121 35.6731 90.1563 40.1475 90.7576C44.6975 91.3694 50.6762 91.375 59 91.375C67.3237 91.375 73.3024 91.3694 77.8524 90.7576C82.3268 90.1563 85.0242 89.0121 87.0182 87.0182C89.0121 85.0242 90.1563 82.3268 90.7576 77.8524C91.3694 73.3024 91.375 67.3237 91.375 59C91.375 57.5503 92.5503 56.375 94 56.375C95.4497 56.375 96.625 57.5503 96.625 59V59.2009C96.625 67.2803 96.625 73.6118 95.9611 78.552C95.281 83.6085 93.8624 87.5989 90.7307 90.7307C87.5989 93.8624 83.6085 95.281 78.552 95.9611C73.6118 96.625 67.2803 96.625 59.2009 96.625H58.7991C50.7198 96.625 44.3882 96.625 39.448 95.9611C34.3914 95.281 30.4013 93.8624 27.2695 90.7307C24.1377 87.5989 22.719 83.6085 22.0391 78.552C21.3749 73.6118 21.375 67.2803 21.375 59.2009V58.7991C21.375 50.7198 21.3749 44.3882 22.0391 39.448C22.719 34.3914 24.1377 30.4013 27.2695 27.2695C30.4013 24.1377 34.3914 22.719 39.448 22.0391C44.3882 21.3749 50.7198 21.375 58.7991 21.375Z" fill="#2684FF"/>
<path fill-rule="evenodd" clip-rule="evenodd" d="M81.75 21.375C83.1997 21.375 84.375 22.5503 84.375 24V33.625H94C95.4497 33.625 96.625 34.8003 96.625 36.25C96.625 37.6997 95.4497 38.875 94 38.875H84.375V48.5C84.375 49.9497 83.1997 51.125 81.75 51.125C80.3003 51.125 79.125 49.9497 79.125 48.5V38.875H69.5C68.0503 38.875 66.875 37.6997 66.875 36.25C66.875 34.8003 68.0503 33.625 69.5 33.625H79.125V24C79.125 22.5503 80.3003 21.375 81.75 21.375Z" fill="#111111"/>
<circle cx="59" cy="59" r="56.5" stroke="#2684FF" stroke-width="5"/>
</svg>
