<svg width="25" height="25" viewBox="0 0 25 25" fill="none" xmlns="http://www.w3.org/2000/svg">
<g clip-path="url(#clip0_14_246)">
<path d="M1.92579 21.1625H22.9258C23.7542 21.1625 24.4258 20.4909 24.4258 19.6625C24.4258 18.8341 23.7542 18.1625 22.9258 18.1625H1.92574C1.09733 18.1625 0.42573 18.8341 0.42573 19.6625C0.425781 20.4909 1.09733 21.1625 1.92579 21.1625Z" fill="white"/>
<path d="M1.92579 13.6625H22.9258C23.7542 13.6625 24.4258 12.991 24.4258 12.1626C24.4258 11.3342 23.7542 10.6626 22.9258 10.6626H1.92574C1.09733 10.6626 0.42573 11.3341 0.42573 12.1626C0.42573 12.991 1.09733 13.6625 1.92579 13.6625Z" fill="white"/>
<path d="M1.92579 6.16256H22.9258C23.7542 6.16256 24.4258 5.49101 24.4258 4.66255C24.4258 3.83408 23.7542 3.16254 22.9258 3.16254H1.92574C1.09733 3.16254 0.42573 3.83408 0.42573 4.66255C0.42573 5.49101 1.09733 6.16256 1.92579 6.16256Z" fill="white"/>
</g>
<defs>
<clipPath id="clip0_14_246">
<rect width="24" height="24" fill="white" transform="matrix(-1 0 0 1 24.4258 0.162506)"/>
</clipPath>
</defs>
</svg>
