<svg width="23" height="12" viewBox="0 0 23 12" fill="none" xmlns="http://www.w3.org/2000/svg">
<path d="M0.738097 10.4459L4.24435 7.09156V2.0014C4.24435 1.80249 4.32336 1.61173 4.46402 1.47107C4.60467 1.33042 4.79543 1.2514 4.99435 1.2514H7.24435C7.44326 1.2514 7.63402 1.33042 7.77467 1.47107C7.91533 1.61173 7.99434 1.80249 7.99434 2.0014V3.5014L10.7093 0.905466C10.9634 0.648591 11.3412 0.501404 11.7495 0.501404C12.1564 0.501404 12.5332 0.648591 12.7873 0.905935L22.7576 10.445C23.0492 10.7262 23.0857 11.1889 22.8204 11.4936C22.7538 11.5705 22.6722 11.633 22.5807 11.6774C22.4891 11.7218 22.3895 11.7471 22.2878 11.7517C22.1862 11.7564 22.0846 11.7403 21.9894 11.7045C21.8942 11.6686 21.8072 11.6138 21.7339 11.5433L12.0073 2.2489C11.9375 2.18214 11.8447 2.14488 11.7481 2.14488C11.6515 2.14488 11.5587 2.18214 11.4889 2.2489L1.76138 11.5433C1.61809 11.6807 1.42616 11.7557 1.22766 11.7518C1.02917 11.7479 0.840304 11.6655 0.702472 11.5227C0.414659 11.2245 0.438566 10.7323 0.738097 10.4459Z" fill="#AED2FF"/>
</svg>
